<?xml version="1.0" encoding="UTF-8" standalone="no"?>
<svg
   width="21"
   height="21.000181"
   viewBox="0 0 21 21.000181"
   fill="none"
   version="1.1"
   id="svg162"
   sodipodi:docname="a480a530e677797cad5c75a3687b4dc0.svg"
   xmlns:inkscape="http://www.inkscape.org/namespaces/inkscape"
   xmlns:sodipodi="http://sodipodi.sourceforge.net/DTD/sodipodi-0.dtd"
   xmlns="http://www.w3.org/2000/svg"
   xmlns:svg="http://www.w3.org/2000/svg">
  <defs
     id="defs166" />
  <sodipodi:namedview
     id="namedview164"
     pagecolor="#ffffff"
     bordercolor="#666666"
     borderopacity="1.0"
     inkscape:pageshadow="2"
     inkscape:pageopacity="0.0"
     inkscape:pagecheckerboard="0" />
  <rect
     width="1.61538"
     height="1.61538"
     fill="#000000"
     id="rect2"
     x="0"
     y="9.4299315e-07" />
  <rect
     y="1.6152309"
     width="1.61538"
     height="1.61538"
     fill="#000000"
     id="rect4"
     x="0" />
  <rect
     y="3.2309608"
     width="1.61538"
     height="1.61538"
     fill="#000000"
     id="rect6"
     x="0" />
  <rect
     y="4.8461909"
     width="1.61538"
     height="1.61538"
     fill="#000000"
     id="rect8"
     x="0" />
  <rect
     y="6.461431"
     width="1.61538"
     height="1.61538"
     fill="#000000"
     id="rect10"
     x="0" />
  <rect
     y="8.0771513"
     width="1.61538"
     height="1.61538"
     fill="#000000"
     id="rect12"
     x="0" />
  <rect
     y="9.6923809"
     width="1.61538"
     height="1.61538"
     fill="#000000"
     id="rect14"
     x="0" />
  <rect
     y="11.307601"
     width="1.61538"
     height="1.61538"
     fill="#000000"
     id="rect16"
     x="0" />
  <rect
     y="12.922901"
     width="1.61538"
     height="1.61538"
     fill="#000000"
     id="rect18"
     x="0" />
  <rect
     y="14.538601"
     width="1.61538"
     height="1.61538"
     fill="#000000"
     id="rect20"
     x="0" />
  <rect
     y="16.153799"
     width="1.61538"
     height="1.61538"
     fill="#000000"
     id="rect22"
     x="0" />
  <rect
     y="17.768999"
     width="1.61538"
     height="1.61538"
     fill="#000000"
     id="rect24"
     x="0" />
  <rect
     y="19.3848"
     width="1.61538"
     height="1.61538"
     fill="#000000"
     id="rect26"
     x="0" />
  <rect
     x="1.4038086e-06"
     width="1.61538"
     height="1.61538"
     transform="rotate(90)"
     fill="#000000"
     id="rect28"
     y="-17.7693" />
  <rect
     x="0"
     width="1.61538"
     height="1.61538"
     transform="rotate(90)"
     fill="#000000"
     id="rect30"
     y="-16.153799" />
  <rect
     x="7.7514648e-07"
     width="1.61538"
     height="1.61538"
     transform="rotate(90)"
     fill="#000000"
     id="rect32"
     y="-14.5385" />
  <rect
     x="1.4144897e-06"
     width="1.61538"
     height="1.61538"
     transform="rotate(90)"
     fill="#000000"
     id="rect34"
     y="-12.9231" />
  <rect
     x="1.1001587e-06"
     width="1.61538"
     height="1.61538"
     transform="rotate(90)"
     fill="#000000"
     id="rect36"
     y="-11.3077" />
  <rect
     x="7.3150636e-07"
     width="1.61538"
     height="1.61538"
     transform="rotate(90)"
     fill="#000000"
     id="rect38"
     y="-9.6922598" />
  <rect
     x="4.7149658e-07"
     width="1.61538"
     height="1.61538"
     transform="rotate(90)"
     fill="#000000"
     id="rect40"
     y="-8.0768995" />
  <rect
     x="1.1787414e-06"
     width="1.61538"
     height="1.61538"
     transform="rotate(90)"
     fill="#000000"
     id="rect42"
     y="-6.4615502" />
  <rect
     x="9.187317e-07"
     width="1.61538"
     height="1.61538"
     transform="rotate(90)"
     fill="#000000"
     id="rect44"
     y="-4.84619" />
  <rect
     x="9.7259522e-07"
     width="1.61538"
     height="1.61538"
     transform="rotate(90)"
     fill="#000000"
     id="rect46"
     y="-3.23071" />
  <rect
     x="1.6152307"
     y="-19.3846"
     width="1.61538"
     height="1.61538"
     transform="rotate(90)"
     fill="#000000"
     id="rect48" />
  <rect
     x="3.2309608"
     y="-4.84619"
     width="1.61538"
     height="1.61538"
     transform="rotate(90)"
     fill="#000000"
     id="rect50" />
  <rect
     x="1.6152309"
     y="-4.84619"
     width="1.61538"
     height="1.61538"
     transform="rotate(90)"
     fill="#000000"
     id="rect52" />
  <rect
     x="4.8461909"
     y="-4.84619"
     width="1.61538"
     height="1.61538"
     transform="rotate(90)"
     fill="#000000"
     id="rect54" />
  <rect
     x="3.2309599"
     y="-16.153801"
     width="1.61538"
     height="1.61538"
     transform="rotate(90)"
     fill="#000000"
     id="rect56" />
  <rect
     x="1.61523"
     y="-16.153801"
     width="1.61538"
     height="1.61538"
     transform="rotate(90)"
     fill="#000000"
     id="rect58" />
  <rect
     x="4.84619"
     y="-16.153801"
     width="1.61538"
     height="1.61538"
     transform="rotate(90)"
     fill="#000000"
     id="rect60" />
  <rect
     x="3.2309613"
     y="-12.9231"
     width="1.61538"
     height="1.61538"
     transform="rotate(90)"
     fill="#000000"
     id="rect62" />
  <rect
     x="1.6152314"
     y="-12.9231"
     width="1.61538"
     height="1.61538"
     transform="rotate(90)"
     fill="#000000"
     id="rect64" />
  <rect
     x="4.8461914"
     y="-12.9231"
     width="1.61538"
     height="1.61538"
     transform="rotate(90)"
     fill="#000000"
     id="rect66" />
  <rect
     x="6.4614301"
     y="-16.153799"
     width="1.61538"
     height="1.61538"
     transform="rotate(90)"
     fill="#000000"
     id="rect68" />
  <rect
     x="6.4614305"
     y="-14.5385"
     width="1.61538"
     height="1.61538"
     transform="rotate(90)"
     fill="#000000"
     id="rect70" />
  <rect
     x="6.4614315"
     y="-12.9231"
     width="1.61538"
     height="1.61538"
     transform="rotate(90)"
     fill="#000000"
     id="rect72" />
  <rect
     x="6.461431"
     y="-11.3077"
     width="1.61538"
     height="1.61538"
     transform="rotate(90)"
     fill="#000000"
     id="rect74" />
  <rect
     x="6.4614305"
     y="-9.6922598"
     width="1.61538"
     height="1.61538"
     transform="rotate(90)"
     fill="#000000"
     id="rect76" />
  <rect
     x="6.4614305"
     y="-8.0768995"
     width="1.61538"
     height="1.61538"
     transform="rotate(90)"
     fill="#000000"
     id="rect78" />
  <rect
     x="6.461431"
     y="-6.4615498"
     width="1.61538"
     height="1.61538"
     transform="rotate(90)"
     fill="#000000"
     id="rect80" />
  <rect
     x="6.461431"
     y="-4.84619"
     width="1.61538"
     height="1.61538"
     transform="rotate(90)"
     fill="#000000"
     id="rect82" />
  <rect
     x="11.307601"
     y="-17.7693"
     width="1.61538"
     height="1.61538"
     transform="rotate(90)"
     fill="#000000"
     id="rect84" />
  <rect
     x="11.3076"
     y="-16.153799"
     width="1.61538"
     height="1.61538"
     transform="rotate(90)"
     fill="#000000"
     id="rect86" />
  <rect
     x="11.307601"
     y="-14.5385"
     width="1.61538"
     height="1.61538"
     transform="rotate(90)"
     fill="#000000"
     id="rect88" />
  <rect
     x="11.307601"
     y="-12.9231"
     width="1.61538"
     height="1.61538"
     transform="rotate(90)"
     fill="#000000"
     id="rect90" />
  <rect
     x="11.307601"
     y="-11.3077"
     width="1.61538"
     height="1.61538"
     transform="rotate(90)"
     fill="#000000"
     id="rect92" />
  <rect
     x="11.307601"
     y="-9.6922598"
     width="1.61538"
     height="1.61538"
     transform="rotate(90)"
     fill="#000000"
     id="rect94" />
  <rect
     x="11.3076"
     y="-8.0768995"
     width="1.61538"
     height="1.61538"
     transform="rotate(90)"
     fill="#000000"
     id="rect96" />
  <rect
     x="11.307601"
     y="-6.4615498"
     width="1.61538"
     height="1.61538"
     transform="rotate(90)"
     fill="#000000"
     id="rect98" />
  <rect
     x="11.307601"
     y="-4.84619"
     width="1.61538"
     height="1.61538"
     transform="rotate(90)"
     fill="#000000"
     id="rect100" />
  <rect
     x="12.922901"
     y="-17.7693"
     width="1.61538"
     height="1.61538"
     transform="rotate(90)"
     fill="#000000"
     id="rect102" />
  <rect
     x="12.922901"
     y="-4.84619"
     width="1.61538"
     height="1.61538"
     transform="rotate(90)"
     fill="#000000"
     id="rect104" />
  <rect
     x="14.538602"
     y="-17.7693"
     width="1.61538"
     height="1.61538"
     transform="rotate(90)"
     fill="#000000"
     id="rect106" />
  <rect
     x="14.538601"
     y="-4.84619"
     width="1.61538"
     height="1.61538"
     transform="rotate(90)"
     fill="#000000"
     id="rect108" />
  <rect
     x="16.153801"
     y="-17.7693"
     width="1.61538"
     height="1.61538"
     transform="rotate(90)"
     fill="#000000"
     id="rect110" />
  <rect
     x="16.153801"
     y="-4.8461909"
     width="1.61538"
     height="1.61538"
     transform="rotate(90)"
     fill="#000000"
     id="rect112" />
  <rect
     x="17.769001"
     y="-4.8461909"
     width="1.61538"
     height="1.61538"
     transform="rotate(90)"
     fill="#000000"
     id="rect114" />
  <rect
     x="17.769001"
     y="-17.7693"
     width="1.61538"
     height="1.61538"
     transform="rotate(90)"
     fill="#000000"
     id="rect116" />
  <rect
     x="19.3848"
     y="-19.3846"
     width="1.61538"
     height="1.61538"
     transform="rotate(90)"
     fill="#000000"
     id="rect118" />
  <rect
     x="19.384802"
     y="-17.7693"
     width="1.61538"
     height="1.61538"
     transform="rotate(90)"
     fill="#000000"
     id="rect120" />
  <rect
     x="19.3848"
     y="-16.153801"
     width="1.61538"
     height="1.61538"
     transform="rotate(90)"
     fill="#000000"
     id="rect122" />
  <rect
     x="19.3848"
     y="-14.5385"
     width="1.61538"
     height="1.61538"
     transform="rotate(90)"
     fill="#000000"
     id="rect124" />
  <rect
     x="19.384802"
     y="-12.9231"
     width="1.61538"
     height="1.61538"
     transform="rotate(90)"
     fill="#000000"
     id="rect126" />
  <rect
     x="19.384802"
     y="-11.3077"
     width="1.61538"
     height="1.61538"
     transform="rotate(90)"
     fill="#000000"
     id="rect128" />
  <rect
     x="19.3848"
     y="-9.6922598"
     width="1.61538"
     height="1.61538"
     transform="rotate(90)"
     fill="#000000"
     id="rect130" />
  <rect
     x="19.3848"
     y="-8.0769005"
     width="1.61538"
     height="1.61538"
     transform="rotate(90)"
     fill="#000000"
     id="rect132" />
  <rect
     x="19.384802"
     y="-6.4615502"
     width="1.61538"
     height="1.61538"
     transform="rotate(90)"
     fill="#000000"
     id="rect134" />
  <rect
     x="19.384802"
     y="-4.84619"
     width="1.61538"
     height="1.61538"
     transform="rotate(90)"
     fill="#000000"
     id="rect136" />
  <rect
     x="19.384802"
     y="-3.23071"
     width="1.61538"
     height="1.61538"
     transform="rotate(90)"
     fill="#000000"
     id="rect138" />
  <rect
     x="-21"
     y="-21"
     width="1.61538"
     height="1.61538"
     transform="scale(-1)"
     fill="#000000"
     id="rect140" />
  <rect
     x="-21"
     y="-19.384802"
     width="1.61538"
     height="1.61538"
     transform="scale(-1)"
     fill="#000000"
     id="rect142" />
  <rect
     x="-21"
     y="-17.769001"
     width="1.61538"
     height="1.61538"
     transform="scale(-1)"
     fill="#000000"
     id="rect144" />
  <rect
     x="-21"
     y="-16.153801"
     width="1.61538"
     height="1.61538"
     transform="scale(-1)"
     fill="#000000"
     id="rect146" />
  <rect
     x="-21"
     y="-14.538601"
     width="1.61538"
     height="1.61538"
     transform="scale(-1)"
     fill="#000000"
     id="rect148" />
  <rect
     x="-21"
     y="-12.922901"
     width="1.61538"
     height="1.61538"
     transform="scale(-1)"
     fill="#000000"
     id="rect150" />
  <rect
     x="-21"
     y="-11.307601"
     width="1.61538"
     height="1.61538"
     transform="scale(-1)"
     fill="#000000"
     id="rect152" />
  <rect
     x="-21"
     y="-9.6923809"
     width="1.61538"
     height="1.61538"
     transform="scale(-1)"
     fill="#000000"
     id="rect154" />
  <rect
     x="-21"
     y="-8.0771503"
     width="1.61538"
     height="1.61538"
     transform="scale(-1)"
     fill="#000000"
     id="rect156" />
  <rect
     x="-21"
     y="-6.461431"
     width="1.61538"
     height="1.61538"
     transform="scale(-1)"
     fill="#000000"
     id="rect158" />
  <rect
     x="-21"
     y="-4.8461909"
     width="1.61538"
     height="1.61538"
     transform="scale(-1)"
     fill="#000000"
     id="rect160" />
</svg>
